<svg xmlns="http://www.w3.org/2000/svg" xmlns:xlink="http://www.w3.org/1999/xlink" width="130" zoomAndPan="magnify" viewBox="0 0 97.5 30.000001" height="40" preserveAspectRatio="xMidYMid meet" version="1.0"><defs><g/><clipPath id="825846bbd2"><path d="M 1.332031 0 L 59 0 L 59 29.03125 L 1.332031 29.03125 Z M 1.332031 0 " clip-rule="nonzero"/></clipPath><clipPath id="40cc1b05ff"><path d="M 3 0 L 68 0 L 68 29.03125 L 3 29.03125 Z M 3 0 " clip-rule="nonzero"/></clipPath><clipPath id="bd8c65689e"><path d="M 16 0 L 82 0 L 82 29.03125 L 16 29.03125 Z M 16 0 " clip-rule="nonzero"/></clipPath><clipPath id="c606107fe7"><path d="M 30 0 L 95 0 L 95 29.03125 L 30 29.03125 Z M 30 0 " clip-rule="nonzero"/></clipPath><clipPath id="c03832d70a"><path d="M 43 0 L 95.683594 0 L 95.683594 29.03125 L 43 29.03125 Z M 43 0 " clip-rule="nonzero"/></clipPath><clipPath id="aaacd98cff"><path d="M 51 0 L 95.683594 0 L 95.683594 29.03125 L 51 29.03125 Z M 51 0 " clip-rule="nonzero"/></clipPath></defs><g clip-path="url(#825846bbd2)"><path stroke-linecap="butt" transform="matrix(0.182097, 0.000459966, -0.000459966, 0.182097, 3.229988, 1.823609)" fill="none" stroke-linejoin="miter" d="M 167.083416 15.112169 L 105.775125 15.11687 C 97.88098 15.115359 94.503536 19.821762 94.514806 24.283639 C 94.503866 28.445252 97.560197 32.49186 102.60126 32.479127 L 110.945883 32.4795 L 102.464713 54.853355 L 96.05071 54.848105 C 88.542743 54.86707 84.95046 59.445307 84.940225 63.885787 C 84.951116 68.197506 88.265188 72.372171 94.958058 72.376717 L 96.352395 72.373195 L 87.022003 98.245785 C 82.292752 111.300225 76.721744 113.824119 69.492591 113.820928 C 64.515827 113.812047 61.010753 110.45302 59.758177 107.131206 C 60.034552 106.14374 60.203778 105.199448 60.201286 104.212687 C 60.185193 97.841641 54.490674 93.930406 49.063432 93.922663 C 43.486085 93.936751 37.918546 97.83353 37.919581 106.735888 C 37.931454 119.928513 51.135679 133.002008 69.369421 132.998854 C 83.677569 133.005615 97.733172 126.448864 105.656933 104.205126 C 108.978795 94.479219 113.559296 81.982893 117.052715 72.235101 L 125.397338 72.235475 C 133.849218 72.235577 137.226283 67.379015 137.214741 62.80988 C 137.225952 58.755524 134.577576 54.858046 130.394566 54.868612 L 123.165412 54.865421 L 130.938689 32.493354 L 163.630738 32.496582 C 171.395362 32.176648 174.752005 27.727715 174.762241 23.287235 C 174.751674 19.104225 171.845612 15.10014 167.083416 15.112169 Z M 167.083416 15.112169 " stroke="#141414" stroke-width="22.594324" stroke-opacity="1" stroke-miterlimit="4"/></g><g clip-path="url(#40cc1b05ff)"><path stroke-linecap="butt" transform="matrix(0.182097, 0.000459966, -0.000459966, 0.182097, 3.229988, 1.823609)" fill="none" stroke-linejoin="miter" d="M 190.475398 103.947977 C 190.475723 104.076685 190.470088 101.845746 189.884291 99.230146 C 190.869264 98.51976 191.853208 97.401798 192.66527 96.177013 C 195.058988 92.674377 199.232943 80.586656 199.218909 75.03076 C 199.225942 60.829869 187.553972 51.399253 172.516479 51.394334 C 159.452562 51.405881 147.093294 58.623343 142.641176 70.990635 L 132.481172 99.632561 C 131.224268 103.089422 130.653914 106.587453 130.661662 109.654993 C 130.655605 124.242009 143.183948 133.005466 157.363334 132.991101 C 168.196366 133.00664 178.076707 129.527996 183.907671 119.516883 C 186.419211 120.196986 189.337676 120.618643 192.276509 120.61122 C 208.665436 120.612725 221.592619 108.931923 226.31797 94.332988 C 226.764601 92.808805 227.018495 91.413818 227.036803 90.169587 C 227.023853 85.042718 223.262446 82.113367 219.229596 82.123554 C 215.475558 82.111585 211.576996 84.330934 210.045505 89.483156 C 206.999746 98.11434 200.622258 104.072507 192.406343 104.071808 C 191.87006 104.073163 191.012006 104.07533 190.475398 103.947977 Z M 177.528962 82.529208 C 177.103078 83.774469 176.676869 84.891022 176.551032 86.028268 C 168.912136 85.168053 162.084928 91.427676 162.084555 99.772299 C 162.225183 104.491267 164.59117 106.995113 167.256825 109.240784 C 165.424256 114.093445 161.418817 116.463225 157.107098 116.474116 C 151.658406 116.466427 150.277013 113.102036 150.268615 109.777079 C 150.283401 107.138511 150.963504 104.626971 151.539168 103.231171 L 161.399937 75.019031 C 163.083051 70.445617 167.924388 67.794857 172.236106 67.783966 C 176.547878 67.794526 179.34392 70.704863 179.330543 73.901166 C 179.336882 76.410972 178.486902 79.609388 177.528962 82.529208 Z M 177.528962 82.529208 " stroke="#141414" stroke-width="22.594324" stroke-opacity="1" stroke-miterlimit="4"/></g><g clip-path="url(#bd8c65689e)"><path stroke-linecap="butt" transform="matrix(0.182097, 0.000459966, -0.000459966, 0.182097, 3.229988, 1.823609)" fill="none" stroke-linejoin="miter" d="M 263.024242 103.936334 C 263.024621 104.086494 263.040383 101.83405 262.454587 99.21845 C 263.43956 98.508063 264.423504 97.390101 265.235566 96.165316 C 267.607832 92.662735 271.781841 80.596465 271.789205 75.019064 C 271.796291 60.839624 260.102816 51.387611 245.065377 51.404143 C 232.001406 51.394239 219.642193 58.633152 215.211472 70.978939 L 205.051522 99.642316 C 203.794617 103.099177 203.224263 106.597208 203.210506 109.643351 C 203.225955 124.251764 215.754244 132.993769 229.933684 133.000856 C 240.766661 132.994944 250.647057 129.537751 256.478021 119.526637 C 258.989561 120.20674 261.907972 120.606947 264.825353 120.599578 C 281.235732 120.601029 294.162969 108.941678 298.866868 94.342797 C 299.313499 92.818614 299.588844 91.423573 299.585647 90.157944 C 299.594149 85.031021 295.811345 82.123176 291.77844 82.111912 C 288.045908 82.12134 284.147292 84.319238 282.6158 89.471459 C 279.570042 98.102644 273.171156 104.082316 264.955241 104.081617 C 264.418958 104.082972 263.582356 104.085085 263.024242 103.936334 Z M 250.099257 82.517512 C 249.651976 83.784278 249.247218 84.900777 249.121328 86.016571 C 241.482486 85.177808 234.655224 91.41598 234.65485 99.760603 C 234.795479 104.479571 237.161519 107.004868 239.805669 109.229142 C 237.9731 114.081803 233.967715 116.473034 229.655943 116.462474 C 224.228755 116.476182 222.847363 113.111791 222.838964 109.786834 C 222.832245 107.126869 223.512348 104.615329 224.088012 103.219529 L 233.970287 75.028786 C 235.631895 70.433974 240.494683 67.78316 244.806455 67.793721 C 249.118173 67.782829 251.892819 70.714672 251.900892 73.910921 C 251.885781 76.420781 251.057198 79.597692 250.099257 82.517512 Z M 250.099257 82.517512 " stroke="#141414" stroke-width="22.594324" stroke-opacity="1" stroke-miterlimit="4"/></g><g clip-path="url(#c606107fe7)"><path stroke-linecap="butt" transform="matrix(0.182097, 0.000459966, -0.000459966, 0.182097, 3.229988, 1.823609)" fill="none" stroke-linejoin="miter" d="M 365.195903 86.281112 C 361.420469 86.290649 357.564105 88.231022 356.309693 92.674645 C 350.045156 109.379713 342.512168 116.477726 336.269776 116.472043 C 333.481102 116.479087 331.953072 114.509411 331.968943 112.29987 C 331.966775 111.441816 332.093424 110.62634 332.66833 108.930222 L 361.013448 27.064167 C 361.588408 25.3895 362.268836 23.006668 362.264989 21.483623 C 362.271377 15.520098 357.415248 12.314644 352.524344 12.326998 C 348.212572 12.316438 344.209246 15.522819 341.696194 22.736861 L 329.044699 58.635677 C 324.871436 54.0127 318.751142 51.389629 312.208485 51.406155 C 303.177365 51.386065 293.472482 56.38732 289.702254 66.950967 L 276.497143 104.481492 C 275.5171 107.14395 275.095063 109.912256 275.101403 112.422062 C 275.110837 124.649376 284.978131 132.990526 296.926632 133.003248 C 303.447892 133.008227 310.671356 130.759028 316.235103 125.360655 C 320.558796 130.090509 327.237529 132.991038 334.209267 132.99488 C 347.938229 133.003104 363.808797 123.116791 373.13572 95.871316 C 373.412149 94.905301 373.688578 93.939287 373.686411 93.081233 C 373.67552 88.769515 369.507676 86.291673 365.195903 86.281112 Z M 299.982999 111.58696 C 297.342751 110.907182 296.650999 108.806685 296.666869 106.597143 C 296.662317 104.795231 297.065612 103.099547 297.469991 101.832888 L 305.412764 78.623786 C 308.202245 70.443729 311.931255 69.039964 314.183699 69.055726 C 316.822213 69.049062 319.746313 71.701658 319.736783 76.421006 C 319.741984 78.480334 319.298225 81.141437 318.084277 84.619641 L 312.375687 100.615407 C 308.19718 110.901216 302.622976 112.159481 299.982999 111.58696 Z M 299.982999 111.58696 " stroke="#141414" stroke-width="22.594324" stroke-opacity="1" stroke-miterlimit="4"/></g><g clip-path="url(#c03832d70a)"><path stroke-linecap="butt" transform="matrix(0.182097, 0.000459966, -0.000459966, 0.182097, 3.229988, 1.823609)" fill="none" stroke-linejoin="miter" d="M 388.82224 38.599169 C 395.086083 38.604798 400.24285 33.44342 400.226703 27.050922 C 400.232387 20.80853 395.071333 15.780471 388.828995 15.796239 C 382.586603 15.790555 377.429456 20.801774 377.423827 27.065618 C 377.418469 33.436718 382.579847 38.593485 388.82224 38.599169 Z M 370.059684 109.500769 L 385.330133 65.851357 C 385.904713 64.026531 386.586279 62.094177 386.582757 60.69984 C 386.588766 54.586156 382.011558 51.401449 377.292211 51.391918 C 372.980493 51.402809 368.397601 54.460494 366.161629 60.965938 C 361.711299 74.041125 355.87541 90.594949 351.424755 103.541428 C 350.573691 106.310818 349.489101 110.046113 349.495116 112.427211 C 349.485212 125.491182 360.315703 132.993291 373.122257 133.003845 C 386.722457 132.990943 401.760324 124.65124 411.46947 95.860293 C 411.76773 95.044384 411.915776 94.207402 411.913717 93.392252 C 411.902826 89.080533 407.734548 86.43108 403.551484 86.420195 C 399.797501 86.429677 396.069845 88.369725 394.386027 92.664273 C 387.846145 110.764382 380.481245 116.467625 374.903844 116.460261 C 371.729047 116.468281 369.642957 114.371306 369.65769 111.711286 C 369.65601 111.046295 369.782876 110.316624 370.059684 109.500769 Z M 370.059684 109.500769 " stroke="#141414" stroke-width="22.594324" stroke-opacity="1" stroke-miterlimit="4"/></g><g clip-path="url(#aaacd98cff)"><path stroke-linecap="butt" transform="matrix(0.182097, 0.000459966, -0.000459966, 0.182097, 3.229988, 1.823609)" fill="none" stroke-linejoin="miter" d="M 460.159067 93.785222 C 454.000324 109.910833 439.408438 116.468938 427.588699 116.477343 C 417.44211 116.46007 411.05871 111.585258 411.064014 105.192707 C 411.060871 103.948529 411.207834 102.682521 411.740595 101.28683 L 412.870851 98.645444 C 416.910096 101.166515 421.891031 102.827148 427.468378 102.81306 C 440.124773 102.823994 451.216678 94.923286 454.981921 82.386117 C 455.704601 79.745761 456.105458 77.084766 456.121003 74.746516 C 456.109131 61.553892 445.679496 51.390788 429.977011 51.387548 C 417.578086 51.397416 405.49774 58.635624 400.620388 72.505594 L 392.421661 96.294533 C 391.314591 99.622307 390.636547 102.948998 390.623169 106.145301 C 390.622097 122.705839 406.178979 133.006152 426.472049 132.997796 C 445.821261 132.991824 467.785091 123.519149 476.942192 96.982001 C 477.368401 95.865448 477.537627 94.921156 477.53546 94.063102 C 477.524569 89.751384 473.635917 87.401545 469.452907 87.412111 C 465.548764 87.421973 461.370956 89.491867 460.159067 93.785222 Z M 429.525082 67.799065 C 433.429225 67.789203 435.947104 70.979112 435.957291 75.011963 C 435.938711 76.148938 435.812821 77.264732 435.365052 78.338437 C 434.003762 82.93249 429.846484 84.637657 425.66342 84.626772 C 423.003455 84.633491 420.363478 84.06097 418.429986 82.928926 L 421.347849 74.619836 C 422.881454 70.304217 426.35023 67.785633 429.525082 67.799065 Z M 429.525082 67.799065 " stroke="#141414" stroke-width="22.594324" stroke-opacity="1" stroke-miterlimit="4"/></g><g fill="#ff0000" fill-opacity="1"><g transform="translate(10.279134, 26.06048)"><g><path d="M 23.371094 -21.410156 L 12.207031 -21.441406 C 10.765625 -21.441406 10.152344 -20.582031 10.152344 -19.773438 C 10.148438 -19.015625 10.707031 -18.277344 11.617188 -18.277344 L 13.136719 -18.273438 L 11.582031 -14.199219 L 10.417969 -14.203125 C 9.050781 -14.207031 8.390625 -13.371094 8.386719 -12.5625 C 8.386719 -11.777344 8.992188 -11.015625 10.207031 -11.011719 L 10.460938 -11.011719 L 8.75 -6.308594 C 7.882812 -3.929688 6.871094 -3.476562 5.554688 -3.480469 C 4.640625 -3.480469 4.011719 -4.089844 3.785156 -4.699219 C 3.835938 -4.875 3.859375 -5.054688 3.863281 -5.230469 C 3.863281 -6.394531 2.828125 -7.109375 1.839844 -7.109375 C 0.828125 -7.113281 -0.1875 -6.40625 -0.191406 -4.785156 C -0.195312 -2.378906 2.203125 0.00390625 5.519531 0.015625 C 8.128906 0.0195312 10.6875 -1.164062 12.140625 -5.210938 C 12.753906 -6.980469 13.59375 -9.257812 14.230469 -11.027344 L 15.75 -11.023438 C 17.296875 -11.019531 17.90625 -11.90625 17.90625 -12.742188 C 17.910156 -13.476562 17.429688 -14.183594 16.671875 -14.1875 L 15.355469 -14.191406 L 16.78125 -18.261719 L 22.730469 -18.25 C 24.148438 -18.296875 24.757812 -19.105469 24.761719 -19.914062 C 24.761719 -20.671875 24.234375 -21.410156 23.371094 -21.410156 Z M 23.371094 -21.410156 "/></g></g></g><g fill="#ff8c00" fill-opacity="1"><g transform="translate(27.140185, 26.10307)"><g><path d="M 10.722656 -5.265625 C 10.722656 -5.238281 10.722656 -5.644531 10.625 -6.125 C 10.800781 -6.25 10.980469 -6.453125 11.132812 -6.679688 C 11.5625 -7.3125 12.328125 -9.515625 12.332031 -10.527344 C 12.339844 -13.109375 10.214844 -14.835938 7.480469 -14.84375 C 5.101562 -14.847656 2.84375 -13.539062 2.027344 -11.289062 L 0.167969 -6.074219 C -0.0625 -5.445312 -0.164062 -4.8125 -0.167969 -4.253906 C -0.171875 -1.59375 2.101562 0.00390625 4.683594 0.0117188 C 6.660156 0.015625 8.457031 -0.613281 9.527344 -2.433594 C 9.980469 -2.304688 10.511719 -2.226562 11.042969 -2.226562 C 14.03125 -2.21875 16.390625 -4.339844 17.261719 -6.996094 C 17.335938 -7.273438 17.386719 -7.527344 17.386719 -7.753906 C 17.390625 -8.691406 16.707031 -9.222656 15.972656 -9.226562 C 15.289062 -9.226562 14.582031 -8.824219 14.300781 -7.890625 C 13.738281 -6.320312 12.570312 -5.234375 11.078125 -5.238281 C 10.976562 -5.238281 10.824219 -5.238281 10.722656 -5.265625 Z M 8.378906 -9.167969 C 8.300781 -8.941406 8.226562 -8.738281 8.199219 -8.535156 C 6.808594 -8.691406 5.5625 -7.554688 5.558594 -6.039062 C 5.582031 -5.175781 6.011719 -4.71875 6.492188 -4.3125 C 6.160156 -3.429688 5.425781 -3 4.640625 -3 C 3.652344 -3.003906 3.402344 -3.613281 3.402344 -4.21875 C 3.40625 -4.699219 3.53125 -5.15625 3.632812 -5.410156 L 5.445312 -10.542969 C 5.75 -11.378906 6.636719 -11.859375 7.421875 -11.855469 C 8.207031 -11.855469 8.714844 -11.320312 8.710938 -10.738281 C 8.710938 -10.28125 8.558594 -9.699219 8.378906 -9.167969 Z M 8.378906 -9.167969 "/></g></g></g><g fill="#f7ff00" fill-opacity="1"><g transform="translate(40.353604, 26.136446)"><g><path d="M 10.722656 -5.265625 C 10.722656 -5.238281 10.722656 -5.644531 10.625 -6.125 C 10.800781 -6.25 10.980469 -6.453125 11.132812 -6.679688 C 11.5625 -7.3125 12.328125 -9.515625 12.332031 -10.527344 C 12.339844 -13.109375 10.214844 -14.835938 7.480469 -14.84375 C 5.101562 -14.847656 2.84375 -13.539062 2.027344 -11.289062 L 0.167969 -6.074219 C -0.0625 -5.445312 -0.164062 -4.8125 -0.167969 -4.253906 C -0.171875 -1.59375 2.101562 0.00390625 4.683594 0.0117188 C 6.660156 0.015625 8.457031 -0.613281 9.527344 -2.433594 C 9.980469 -2.304688 10.511719 -2.226562 11.042969 -2.226562 C 14.03125 -2.21875 16.390625 -4.339844 17.261719 -6.996094 C 17.335938 -7.273438 17.386719 -7.527344 17.386719 -7.753906 C 17.390625 -8.691406 16.707031 -9.222656 15.972656 -9.226562 C 15.289062 -9.226562 14.582031 -8.824219 14.300781 -7.890625 C 13.738281 -6.320312 12.570312 -5.234375 11.078125 -5.238281 C 10.976562 -5.238281 10.824219 -5.238281 10.722656 -5.265625 Z M 8.378906 -9.167969 C 8.300781 -8.941406 8.226562 -8.738281 8.199219 -8.535156 C 6.808594 -8.691406 5.5625 -7.554688 5.558594 -6.039062 C 5.582031 -5.175781 6.011719 -4.71875 6.492188 -4.3125 C 6.160156 -3.429688 5.425781 -3 4.640625 -3 C 3.652344 -3.003906 3.402344 -3.613281 3.402344 -4.21875 C 3.40625 -4.699219 3.53125 -5.15625 3.632812 -5.410156 L 5.445312 -10.542969 C 5.75 -11.378906 6.636719 -11.859375 7.421875 -11.855469 C 8.207031 -11.855469 8.714844 -11.320312 8.710938 -10.738281 C 8.710938 -10.28125 8.558594 -9.699219 8.378906 -9.167969 Z M 8.378906 -9.167969 "/></g></g></g><g fill="#2aff00" fill-opacity="1"><g transform="translate(53.567023, 26.169823)"><g><path d="M 16.125 -8.464844 C 15.441406 -8.46875 14.730469 -8.117188 14.5 -7.304688 C 13.355469 -4.269531 11.984375 -2.984375 10.84375 -2.984375 C 10.335938 -2.988281 10.058594 -3.34375 10.0625 -3.746094 C 10.0625 -3.898438 10.085938 -4.050781 10.1875 -4.355469 L 15.390625 -19.253906 C 15.492188 -19.558594 15.621094 -19.988281 15.621094 -20.265625 C 15.625 -21.355469 14.742188 -21.941406 13.855469 -21.941406 C 13.070312 -21.945312 12.332031 -21.363281 11.875 -20.046875 L 9.554688 -13.523438 C 8.796875 -14.359375 7.683594 -14.84375 6.492188 -14.847656 C 4.847656 -14.851562 3.074219 -13.941406 2.386719 -12.019531 L -0.0390625 -5.191406 C -0.214844 -4.710938 -0.292969 -4.203125 -0.292969 -3.746094 C -0.300781 -1.519531 1.492188 0.00390625 3.671875 0.0078125 C 4.859375 0.0117188 6.179688 -0.390625 7.195312 -1.375 C 7.976562 -0.511719 9.191406 0.0234375 10.457031 0.0273438 C 12.964844 0.03125 15.855469 -1.757812 17.5625 -6.714844 C 17.613281 -6.894531 17.664062 -7.070312 17.664062 -7.222656 C 17.667969 -8.007812 16.910156 -8.464844 16.125 -8.464844 Z M 4.238281 -3.886719 C 3.757812 -4.015625 3.632812 -4.394531 3.632812 -4.800781 C 3.632812 -5.128906 3.710938 -5.433594 3.785156 -5.660156 L 5.242188 -9.886719 C 5.75 -11.378906 6.433594 -11.628906 6.839844 -11.628906 C 7.320312 -11.628906 7.851562 -11.144531 7.847656 -10.285156 C 7.847656 -9.90625 7.769531 -9.425781 7.542969 -8.792969 L 6.496094 -5.882812 C 5.730469 -4.011719 4.71875 -3.785156 4.238281 -3.886719 Z M 4.238281 -3.886719 "/></g></g></g><g fill="#00eaff" fill-opacity="1"><g transform="translate(67.161708, 26.204162)"><g><path d="M 6.855469 -17.175781 C 7.992188 -17.171875 8.933594 -18.105469 8.9375 -19.269531 C 8.9375 -20.410156 8.003906 -21.324219 6.863281 -21.328125 C 5.726562 -21.328125 4.785156 -20.421875 4.785156 -19.28125 C 4.78125 -18.117188 5.714844 -17.175781 6.855469 -17.175781 Z M 3.402344 -4.269531 L 6.207031 -12.214844 C 6.3125 -12.542969 6.4375 -12.894531 6.4375 -13.148438 C 6.441406 -14.261719 5.609375 -14.847656 4.746094 -14.851562 C 3.960938 -14.851562 3.125 -14.296875 2.71875 -13.109375 C 1.902344 -10.730469 0.828125 -7.71875 0.0117188 -5.367188 C -0.140625 -4.863281 -0.34375 -4.179688 -0.34375 -3.75 C -0.351562 -1.367188 1.621094 0.00390625 3.949219 0.0117188 C 6.429688 0.015625 9.167969 -1.496094 10.953125 -6.734375 C 11.003906 -6.882812 11.03125 -7.035156 11.03125 -7.1875 C 11.035156 -7.972656 10.277344 -8.457031 9.515625 -8.457031 C 8.832031 -8.460938 8.148438 -8.105469 7.84375 -7.324219 C 6.644531 -4.035156 5.300781 -3 4.285156 -3.003906 C 3.703125 -3.003906 3.324219 -3.382812 3.328125 -3.867188 C 3.328125 -3.992188 3.351562 -4.117188 3.402344 -4.269531 Z M 3.402344 -4.269531 "/></g></g></g><g fill="#0062ff" fill-opacity="1"><g transform="translate(74.146837, 26.221806)"><g><path d="M 12.828125 -7.109375 C 11.707031 -4.171875 9.046875 -2.988281 6.894531 -2.996094 C 5.046875 -3 3.882812 -3.890625 3.886719 -5.054688 C 3.886719 -5.28125 3.914062 -5.507812 4.015625 -5.761719 L 4.21875 -6.242188 C 4.953125 -5.785156 5.863281 -5.480469 6.875 -5.476562 C 9.179688 -5.472656 11.207031 -6.910156 11.898438 -9.1875 C 12.027344 -9.667969 12.101562 -10.148438 12.105469 -10.578125 C 12.109375 -12.984375 10.214844 -14.835938 7.355469 -14.84375 C 5.101562 -14.847656 2.894531 -13.539062 2.003906 -11.007812 L 0.496094 -6.683594 C 0.292969 -6.074219 0.164062 -5.46875 0.164062 -4.886719 C 0.15625 -1.875 2.988281 0.0078125 6.683594 0.015625 C 10.203125 0.0273438 14.207031 -1.6875 15.890625 -6.515625 C 15.96875 -6.71875 15.992188 -6.898438 15.992188 -7.050781 C 15.996094 -7.832031 15.289062 -8.265625 14.527344 -8.269531 C 13.820312 -8.269531 13.058594 -7.890625 12.828125 -7.109375 Z M 7.269531 -11.855469 C 7.980469 -11.855469 8.433594 -11.269531 8.433594 -10.535156 C 8.433594 -10.335938 8.40625 -10.132812 8.328125 -9.929688 C 8.074219 -9.09375 7.3125 -8.792969 6.554688 -8.792969 C 6.074219 -8.796875 5.59375 -8.898438 5.238281 -9.101562 L 5.773438 -10.621094 C 6.054688 -11.402344 6.6875 -11.859375 7.269531 -11.855469 Z M 7.269531 -11.855469 "/></g></g></g></svg>